<svg fill="none" xmlns="http://www.w3.org/2000/svg" viewBox="0 0 1024 1024">
  <path d="M165 528l10 -2q13 -2 28 -6q20 -6 41 -15q25 -11 50 -26q28 -19 54 -43q30 -28 56 -63q28 -38 51 -85q26 -52 44 -113q3 21 -3 60q-7 48 -25 93q-22 57 -56 99q-42 51 -99 76q-66 30 -151 25zM372 764l8 4q11 6 24 11q18 6 37 9q24 3 49 1q29 -2 58 -13q33 -11 65 -33 q36 -24 70 -60q38 -40 74 -94q29 24 77 47q24 11 42 17v0l-11 16q-15 19 -32 38q-24 28 -48 53q-31 31 -62 55q-37 29 -72 48q-41 22 -78 31q-43 10 -81 3q-42 -8 -80 -35q-40 -15 -51 -40q-7 -18 1 -40q4 -11 10 -18v0zM510 168q-1 -5 -0.5 8t4.5 31q4 24 12 50 q10 33 25 65q18 38 41 74q27 42 61 79q39 42 85 79q52 41 113 75q5 -27 -6 -51q-6 -12 -12 -18l-10 -2q-13 -4 -28 -10q-20 -8 -40 -19q-26 -14 -49 -33q-29 -22 -54 -49q-29 -31 -53 -69q-28 -42 -49 -92q-24 -55 -40 -118zM212 495q-57 26 -79 6q-16 -15 -10 -55 q3 -27 13 -49l9 -29q12 -36 28 -71q24 -47 52 -85q36 -46 79 -73q50 -32 108 -36q72 -5 74 47q1 44 -49 122q-45 69 -111 135t-114 88zM372 157l-16 4q-20 7 -41 19q-28 18 -54 44q-31 32 -56 77q-29 53 -47 121q-2 6 0.5 11.5t8.5 7t12 -3.5l6 -1q6 -1 14 -3q11 -4 24 -10 q15 -8 30 -20q19 -15 38 -34q22 -22 43 -50q24 -32 48 -71q26 -43 52 -95q-8 -9 -24 -8q-12 0 -26 6zM372 753q-17 -34 -40 -86q-17 -39 -26 -55q-13 -23 -29 -38t-43 -28l10 2q13 2 27 2q20 0 40 -3q24 -3 46 -12q27 -11 50 -28q26 -19 47 -47q24 -31 41 -73 q19 -45 29 -103q30 96 84 169q51 68 138 133q-59 69 -115 111q-48 36 -96 52q-38 12 -80 12q-24 0 -67 -6zM637 582l-18 -76v0q2 9 1 18q-1 18 -12 29q-9 -10 -19 -17q-5 -4 -16 -9q-19 -9 -30 -20t-10 -27q0 -9 6 -27q3 -10 4 -15q1 -7 0 -12l-8 11q-10 15 -18 36l-7 19 q-8 22 -10 28q-1 9 4.5 11t23.5 4h5q27 2 42 10q27 14 40 52q10 28 2 44q-8 14 -24.5 15t-28.5 -8q-3 -3 -3.5 -1.5t0.5 7.5q1 13 -1 18q-4 9 -21 5q-25 -7 3 8l33 17q32 -10 48 -31q14 -17 17 -40q3 -16 0 -34z" transform="translate(0,1000) scale(1, -1)" style="fill: currentcolor;"></path>
</svg>