<svg fill="none" xmlns="http://www.w3.org/2000/svg" viewBox="0 0 1024 1024">
  <path d="M498 266v0h-1q-49 17 -109 44q-117 53 -189 112q-100 82 -100 165q0 52 60 87q54 31 149 48q86 14 190.5 14t190.5 -14q96 -17 150 -48q60 -35 60 -87q0 -83 -101 -165q-73 -59 -190 -112q-62 -28 -110 -44zM499 671h-51q-61 0 -112 -6q-71 -8 -112 -25q-51 -20 -51 -53 q0 -42 84 -82q60 -28 156 -53q49 -12 85 -18l51 10q62 14 113 31q71 23 112 48q51 32 51 64q0 42 -84 64q-61 16 -158 20q-48 1 -84 0v0z" transform="translate(0,1000) scale(1, -1)" style="fill: currentcolor;"></path>
</svg>