<svg fill="none" xmlns="http://www.w3.org/2000/svg" viewBox="0 0 1024 1024">
  <path d="M498 750l-112 -23l12 3q15 4 30 10q21 8 37 19q-25 2 -76 5l-46 2h158v81h-33l3 29h30l-3 15l-67 5q-75 5 -115 11q-22 3 -34 2q-10 0 -12.5 -2.5t-0.5 -5.5l1 -3l25 -15v-8l-18 -8l15 -18l-25 -37l-33 -8v-31l33 -22l-6 -76l13 -50q14 -61 24 -114q11 -24 22 -42l8 -13 l-21 -15l21 -20l-2 -6q-3 -8 -5 -19q-2 -15 -1 -33q2 -24 8 -52q8 -45 23 -90q6 -17 8 -25q2 -12 2 -25q0 -23 -12 -41q-6 -9 -12 -13v0l8 -3q10 -4 23 -6q18 -2 38 -1q26 2 54 9q-13 13 -22 35q-5 10 -7 18l8 59q9 64 17 90q5 19 4 44q-1 15 -5 38q-3 16 -2 19q2 4 10 10 l8 5l-15 26l12 55l5 90q6 91 12 99t6 16q0 3 -2 6zM500 750l112 -23l-12 3q-15 4 -30 10q-21 8 -37 19q40 4 122 7v0h-158v81h33l-3 29h-30l3 15l67 5q75 5 115 11q22 3 34 2q10 0 12.5 -2.5t0.5 -5.5l-1 -3l-25 -15v-8l18 -8l-15 -18l25 -37l33 -8v-31l-33 -22l6 -76 l-13 -50q-14 -61 -24 -114q-18 -38 -30 -55l21 -15l-21 -20l2 -6q3 -8 5 -19q2 -15 1 -33q-2 -24 -8 -52q-8 -45 -23 -90q-6 -17 -8 -25q-2 -12 -2 -25q0 -16 6 -30q4 -10 12 -18l6 -6l-8 -3q-10 -4 -23 -6q-18 -2 -38 -1q-26 2 -54 9q10 10 17 23q5 10 9 21l3 9l-8 59 q-9 64 -17 90q-5 19 -4 44q1 15 5 38q3 16 2 19q-3 6 -18 15l15 26l-12 55l-5 90q-6 91 -12 99q-4 6 -5 10.5t0 8.5l1 3zM483 871h36v-17h-36v17z" transform="translate(0,1000) scale(1, -1)" style="fill: currentcolor;"></path>
</svg>